<svg width="233" height="66" viewBox="0 0 233 66" fill="none" xmlns="http://www.w3.org/2000/svg">
<path d="M18.8516 43.0645V0H28.1816V51L19.748 51.0332L18.8516 43.0645ZM0.224609 34.2988V31.9082C0.224609 28.9863 0.468099 26.4297 0.955078 24.2383C1.46419 22.0469 2.2168 20.2207 3.21289 18.7598C4.20898 17.2988 5.42643 16.2142 6.86523 15.5059C8.32617 14.7754 9.9974 14.4102 11.8789 14.4102C13.5833 14.4102 15.0775 14.8418 16.3613 15.7051C17.6673 16.5462 18.7741 17.7305 19.6816 19.2578C20.5892 20.7852 21.3197 22.5892 21.873 24.6699C22.4264 26.7507 22.8138 29.0306 23.0352 31.5098V34.9629C22.7695 37.3092 22.36 39.5007 21.8066 41.5371C21.2754 43.5736 20.5449 45.3444 19.6152 46.8496C18.7077 48.3548 17.612 49.5391 16.3281 50.4023C15.0443 51.2435 13.5501 51.6641 11.8457 51.6641C9.96419 51.6641 8.29297 51.2878 6.83203 50.5352C5.39323 49.7826 4.17578 48.6758 3.17969 47.2148C2.20573 45.7318 1.46419 43.9167 0.955078 41.7695C0.468099 39.6003 0.224609 37.11 0.224609 34.2988ZM9.52148 31.9082V34.2988C9.52148 35.9811 9.59896 37.431 9.75391 38.6484C9.93099 39.8438 10.2077 40.8288 10.584 41.6035C10.9824 42.3561 11.5026 42.9206 12.1445 43.2969C12.7865 43.651 13.5833 43.8281 14.5352 43.8281C15.7747 43.8281 16.7819 43.5182 17.5566 42.8984C18.3314 42.2565 18.9069 41.3822 19.2832 40.2754C19.6816 39.1465 19.903 37.8516 19.9473 36.3906V30.1152C19.903 28.8978 19.7591 27.8021 19.5156 26.8281C19.2721 25.8542 18.929 25.0241 18.4863 24.3379C18.0436 23.6517 17.4902 23.1204 16.8262 22.7441C16.1842 22.3678 15.4316 22.1797 14.5684 22.1797C13.6387 22.1797 12.8418 22.3678 12.1777 22.7441C11.5358 23.1204 11.0267 23.707 10.6504 24.5039C10.2741 25.2786 9.98633 26.2858 9.78711 27.5254C9.61003 28.7428 9.52148 30.2038 9.52148 31.9082ZM50.8594 15.0742V22.0801H32.5312V15.0742H50.8594ZM36.748 6.20898H46.0117V40.043C46.0117 41.0391 46.1113 41.8027 46.3105 42.334C46.5098 42.8652 46.8086 43.2415 47.207 43.4629C47.6276 43.6621 48.181 43.7617 48.8672 43.7617C49.332 43.7617 49.7637 43.7396 50.1621 43.6953C50.5605 43.6289 50.8594 43.5625 51.0586 43.4961V50.7676C50.3281 51.0553 49.5534 51.2767 48.7344 51.4316C47.9375 51.5866 46.9857 51.6641 45.8789 51.6641C44.0195 51.6641 42.4036 51.3099 41.0312 50.6016C39.681 49.8932 38.6296 48.7643 37.877 47.2148C37.1243 45.6432 36.748 43.5846 36.748 41.0391V6.20898ZM65.4023 22.5117V51H56.0723V15.0742H64.8379L65.4023 22.5117ZM64.0742 31.8086L61.5176 31.875C61.4733 29.3516 61.6947 27.0273 62.1816 24.9023C62.6686 22.7773 63.3991 20.929 64.373 19.3574C65.3691 17.7858 66.6198 16.5684 68.125 15.7051C69.6302 14.8418 71.39 14.4102 73.4043 14.4102C74.7103 14.4102 75.9167 14.6536 77.0234 15.1406C78.1302 15.6055 79.0931 16.347 79.9121 17.3652C80.7311 18.3613 81.362 19.6673 81.8047 21.2832C82.2474 22.877 82.4688 24.7917 82.4688 27.0273V51H73.1719V28.1562C73.1719 26.5625 73.0169 25.3451 72.707 24.5039C72.3971 23.6406 71.9544 23.043 71.3789 22.7109C70.8034 22.3568 70.0951 22.1797 69.2539 22.1797C68.3685 22.1797 67.5938 22.4232 66.9297 22.9102C66.2656 23.3971 65.7233 24.0833 65.3027 24.9688C64.9043 25.832 64.5944 26.8503 64.373 28.0234C64.1738 29.1966 64.0742 30.4583 64.0742 31.8086ZM81.5723 30.8789L78.2188 31.3105C78.1745 28.9421 78.3848 26.7396 78.8496 24.7031C79.3145 22.6445 80.0339 20.8516 81.0078 19.3242C81.9818 17.7747 83.1992 16.5684 84.6602 15.7051C86.1432 14.8418 87.8587 14.4102 89.8066 14.4102C91.2676 14.4102 92.5957 14.6536 93.791 15.1406C94.9863 15.6276 96.0046 16.4134 96.8457 17.498C97.709 18.5605 98.362 19.9661 98.8047 21.7148C99.2695 23.4635 99.502 25.5885 99.502 28.0898V51H90.1719V28.123C90.1719 26.5072 90.0169 25.2676 89.707 24.4043C89.3971 23.541 88.9544 22.9544 88.3789 22.6445C87.8034 22.3346 87.1172 22.1797 86.3203 22.1797C85.5234 22.1797 84.8262 22.401 84.2285 22.8438C83.653 23.2865 83.166 23.9062 82.7676 24.7031C82.3691 25.4779 82.0703 26.3965 81.8711 27.459C81.6719 28.4993 81.5723 29.6393 81.5723 30.8789ZM105.445 34.2656V31.8418C105.445 29.0306 105.777 26.5404 106.441 24.3711C107.128 22.2018 108.102 20.3867 109.363 18.9258C110.625 17.4427 112.141 16.3249 113.912 15.5723C115.705 14.7975 117.708 14.4102 119.922 14.4102C122.158 14.4102 124.161 14.7975 125.932 15.5723C127.725 16.3249 129.252 17.4427 130.514 18.9258C131.798 20.3867 132.783 22.2018 133.469 24.3711C134.155 26.5404 134.498 29.0306 134.498 31.8418V34.2656C134.498 37.0547 134.155 39.5339 133.469 41.7031C132.783 43.8724 131.798 45.6986 130.514 47.1816C129.252 48.6647 127.736 49.7826 125.965 50.5352C124.194 51.2878 122.202 51.6641 119.988 51.6641C117.775 51.6641 115.771 51.2878 113.979 50.5352C112.208 49.7826 110.68 48.6647 109.396 47.1816C108.113 45.6986 107.128 43.8724 106.441 41.7031C105.777 39.5339 105.445 37.0547 105.445 34.2656ZM114.742 31.8418V34.2656C114.742 35.9258 114.853 37.3646 115.074 38.582C115.318 39.7995 115.661 40.8066 116.104 41.6035C116.568 42.4004 117.122 42.987 117.764 43.3633C118.406 43.7396 119.147 43.9277 119.988 43.9277C120.829 43.9277 121.582 43.7396 122.246 43.3633C122.91 42.987 123.452 42.4004 123.873 41.6035C124.316 40.8066 124.637 39.7995 124.836 38.582C125.057 37.3646 125.168 35.9258 125.168 34.2656V31.8418C125.168 30.2259 125.046 28.8092 124.803 27.5918C124.559 26.3522 124.216 25.3451 123.773 24.5703C123.331 23.7734 122.777 23.1758 122.113 22.7773C121.471 22.3568 120.741 22.1465 119.922 22.1465C119.103 22.1465 118.372 22.3568 117.73 22.7773C117.111 23.1758 116.568 23.7734 116.104 24.5703C115.661 25.3451 115.318 26.3522 115.074 27.5918C114.853 28.8092 114.742 30.2259 114.742 31.8418ZM149.506 22.7441V51H140.176V15.0742H148.908L149.506 22.7441ZM148.111 31.8086L145.621 31.875C145.577 29.1745 145.831 26.7507 146.385 24.6035C146.96 22.4564 147.768 20.6302 148.809 19.125C149.871 17.5977 151.133 16.4355 152.594 15.6387C154.077 14.8197 155.726 14.4102 157.541 14.4102C158.936 14.4102 160.208 14.6536 161.359 15.1406C162.533 15.6276 163.54 16.4023 164.381 17.4648C165.222 18.5273 165.875 19.944 166.34 21.7148C166.805 23.4635 167.037 25.6107 167.037 28.1562V51H157.707V28.0898C157.707 26.5404 157.552 25.3451 157.242 24.5039C156.932 23.6406 156.467 23.043 155.848 22.7109C155.228 22.3568 154.453 22.1797 153.523 22.1797C152.638 22.1797 151.852 22.4342 151.166 22.9434C150.48 23.4303 149.904 24.1055 149.439 24.9688C148.997 25.832 148.654 26.8503 148.41 28.0234C148.189 29.1966 148.089 30.4583 148.111 31.8086ZM188.32 51.6641C185.863 51.6641 183.683 51.2878 181.779 50.5352C179.898 49.7826 178.304 48.6979 176.998 47.2812C175.692 45.8424 174.696 44.1048 174.01 42.0684C173.324 40.0319 172.98 37.7077 172.98 35.0957V32.1406C172.98 29.2188 173.312 26.6621 173.977 24.4707C174.641 22.2572 175.581 20.3978 176.799 18.8926C178.016 17.3874 179.51 16.2695 181.281 15.5391C183.074 14.7865 185.1 14.4102 187.357 14.4102C189.615 14.4102 191.596 14.7865 193.301 15.5391C195.027 16.2695 196.455 17.3763 197.584 18.8594C198.713 20.3203 199.565 22.1354 200.141 24.3047C200.716 26.474 201.004 28.9974 201.004 31.875V36.125H176.932V29.584H191.873V28.7539C191.873 27.293 191.718 26.0755 191.408 25.1016C191.098 24.1055 190.611 23.3639 189.947 22.877C189.283 22.39 188.398 22.1465 187.291 22.1465C186.361 22.1465 185.576 22.3346 184.934 22.7109C184.292 23.0872 183.783 23.6738 183.406 24.4707C183.03 25.2676 182.753 26.3079 182.576 27.5918C182.399 28.8535 182.311 30.3698 182.311 32.1406V35.0957C182.311 36.7559 182.454 38.1504 182.742 39.2793C183.03 40.3861 183.451 41.2936 184.004 42.002C184.579 42.6882 185.277 43.1862 186.096 43.4961C186.915 43.7839 187.867 43.9277 188.951 43.9277C190.589 43.9277 192.061 43.64 193.367 43.0645C194.695 42.4668 195.824 41.6589 196.754 40.6406L200.473 46.2852C199.831 47.1263 198.945 47.9674 197.816 48.8086C196.688 49.6497 195.337 50.3359 193.766 50.8672C192.194 51.3984 190.379 51.6641 188.32 51.6641ZM214.949 46.8828L222.453 15.0742H232.148L220.328 56.3789C220.062 57.2865 219.697 58.2604 219.232 59.3008C218.768 60.3633 218.148 61.3594 217.373 62.2891C216.62 63.2409 215.669 64.0156 214.518 64.6133C213.367 65.2109 211.983 65.5098 210.367 65.5098C209.548 65.5098 208.884 65.4544 208.375 65.3438C207.888 65.2552 207.268 65.1003 206.516 64.8789V57.6406C206.715 57.6406 206.903 57.6406 207.08 57.6406C207.279 57.6628 207.467 57.6738 207.645 57.6738C208.685 57.6738 209.515 57.5299 210.135 57.2422C210.755 56.9766 211.253 56.556 211.629 55.9805C212.027 55.4049 212.359 54.6855 212.625 53.8223L214.949 46.8828ZM213.023 15.0742L218.602 40.8398L219.863 51.332L213.588 51.9297L203.062 15.0742H213.023Z" fill="white"/>
</svg>
